<svg xmlns="http://www.w3.org/2000/svg" xmlns:xlink="http://www.w3.org/1999/xlink" width="34px" height="48px" viewBox="0 0 34 48" version="1.1">
<g id="surface1">
<path style=" stroke:none;fill-rule:nonzero;fill:rgb(94.117647%,94.117647%,94.509804%);fill-opacity:1;" d="M 16.910156 44.027344 C 17.632812 43.125 18.1875 42.453125 18.707031 41.757812 C 23.027344 36.121094 27.128906 30.34375 29.878906 23.742188 C 31.261719 20.773438 31.703125 17.457031 31.148438 14.230469 C 30.355469 10.417969 28.066406 7.082031 24.789062 4.976562 C 21.515625 2.867188 17.53125 2.164062 13.734375 3.027344 C 9.960938 3.894531 6.699219 6.253906 4.695312 9.570312 C 2.695312 12.886719 2.125 16.875 3.113281 20.617188 C 4.472656 25.644531 7.132812 30.074219 9.988281 34.355469 C 12.167969 37.609375 14.539062 40.734375 16.910156 44.027344 Z M 16.910156 44.027344 "/>
<path style=" stroke:none;fill-rule:nonzero;fill:rgb(9.803922%,28.627451%,61.176471%);fill-opacity:1;" d="M 16.910156 47.988281 C 10.46875 40.203125 4.371094 32.164062 1.003906 22.546875 C -0.824219 17.300781 0.0351562 11.488281 3.304688 6.992188 C 6.570312 2.5 11.835938 -0.109375 17.390625 0.0117188 C 26.707031 0.121094 34.601562 8.3125 33.96875 17.613281 C 33.660156 20.601562 32.847656 23.515625 31.570312 26.234375 C 28.132812 33.980469 23.109375 40.722656 17.761719 47.234375 C 17.492188 47.5 17.207031 47.753906 16.910156 47.988281 Z M 16.910156 44.027344 C 17.632812 43.125 18.1875 42.453125 18.707031 41.757812 C 23.027344 36.121094 27.128906 30.34375 29.878906 23.742188 C 31.261719 20.773438 31.703125 17.457031 31.148438 14.230469 C 30.355469 10.417969 28.066406 7.082031 24.789062 4.976562 C 21.515625 2.867188 17.53125 2.164062 13.734375 3.027344 C 9.960938 3.894531 6.699219 6.253906 4.695312 9.570312 C 2.695312 12.886719 2.125 16.875 3.113281 20.617188 C 4.472656 25.644531 7.132812 30.074219 9.988281 34.355469 C 12.167969 37.609375 14.539062 40.734375 16.910156 44.027344 Z M 16.910156 44.027344 "/>
<path style=" stroke:none;fill-rule:nonzero;fill:rgb(9.803922%,28.627451%,61.176471%);fill-opacity:1;" d="M 16.941406 23.664062 C 14.269531 23.636719 11.882812 22 10.898438 19.523438 C 9.910156 17.042969 10.523438 14.210938 12.441406 12.359375 C 14.363281 10.507812 17.214844 10.003906 19.65625 11.082031 C 22.097656 12.160156 23.644531 14.605469 23.570312 17.273438 C 23.484375 20.859375 20.527344 23.707031 16.941406 23.664062 Z M 17 21.03125 C 18.054688 21.066406 19.078125 20.660156 19.824219 19.914062 C 20.574219 19.167969 20.980469 18.148438 20.949219 17.09375 C 20.980469 16.050781 20.582031 15.042969 19.851562 14.300781 C 19.125 13.554688 18.121094 13.144531 17.082031 13.152344 C 16.011719 13.097656 14.96875 13.492188 14.203125 14.238281 C 13.441406 14.988281 13.027344 16.023438 13.0625 17.09375 C 13.027344 18.148438 13.433594 19.167969 14.179688 19.914062 C 14.925781 20.660156 15.945312 21.066406 17 21.03125 Z M 17 21.03125 "/>
</g>
</svg>
