<svg height="480pt" viewBox="0 0 480.01134 480" width="480pt" xmlns="http://www.w3.org/2000/svg"><path d="m480.011719 240.003906c0-13.253906-10.746094-24-24-24h-392v-160c.027343-22.078125 17.917969-39.972656 40-40 6.367187-.011718 12.480469 2.511719 16.984375 7.015625 4.503906 4.503907 7.027344 10.617188 7.015625 16.984375v8h-14.113281c-9.097657-.027344-17.421876 5.117188-21.464844 13.265625l-11.582032 23.199219c-1.222656 2.476562-1.078124 5.410156.378907 7.753906 1.457031 2.347656 4.019531 3.777344 6.78125 3.78125h96c2.773437.003906 5.347656-1.433594 6.808593-3.789062 1.457032-2.359375 1.589844-5.304688.351563-7.785156l-11.585937-23.199219c-4.050782-8.136719-12.375-13.261719-21.460938-13.226563h-14.113281v-8c.011719-10.609375-4.199219-20.789062-11.703125-28.292968-7.503906-7.503907-17.683594-11.71484425-28.296875-11.70703175-30.914063.03515625-55.964844 25.08984375-56 55.99999975v160h-24c-11.894531-.039062-22.015625 8.664063-23.753907 20.429688-1.742187 11.765625 5.425782 23.027344 16.824219 26.429687l21.824219 125.488281c5.953125 34.511719 35.914062 59.707032 70.9375 59.652344h5.222656l9.367188 18.738282c4.042968 8.148437 12.367187 13.292968 21.464844 13.261718h12.226562c9.097656.03125 17.417969-5.113281 21.460938-13.261718l9.371093-18.738282h102.109375l9.367188 18.738282c4.042968 8.148437 12.367187 13.292968 21.464844 13.261718h12.226562c9.097656.03125 17.417969-5.113281 21.460938-13.261718l9.371093-18.738282h5.222657c35.023437.054688 64.988281-25.148437 70.9375-59.664062l21.820312-125.476563c10.105469-3.03125 17.035156-12.3125 17.074219-22.859375zm-314.738281-171.574218 5.792968 11.574218h-70.109375l5.789063-11.574218c1.347656-2.71875 4.121094-4.433594 7.152344-4.425782h44.226562c3.03125-.007812 5.804688 1.707032 7.148438 4.425782zm0 391.152343c-1.34375 2.71875-4.117188 4.433594-7.148438 4.421875h-12.226562c-3.03125.011719-5.804688-1.703125-7.152344-4.421875l-5.789063-11.578125h38.109375zm176 0c-1.34375 2.71875-4.117188 4.433594-7.148438 4.421875h-12.226562c-3.03125.011719-5.804688-1.703125-7.152344-4.421875l-5.789063-11.578125h38.109375zm84.074218-73.976562c-4.625 26.859375-27.949218 46.464843-55.199218 46.398437h-260.304688c-27.253906.066406-50.578125-19.539062-55.199219-46.398437l-21.121093-121.601563h412.976562zm30.664063-137.601563h-432c-4.417969 0-8-3.578125-8-8 0-4.417968 3.582031-8 8-8h432c4.417969 0 8 3.582032 8 8 0 4.421875-3.582031 8-8 8zm0 0"/><path d="m370.179688 424.003906c23.351562.039063 43.328124-16.761718 47.296874-39.773437.753907-4.355469-2.167968-8.496094-6.519531-9.25-4.355469-.753907-8.496093 2.167969-9.25 6.519531-2.648437 15.339844-15.964843 26.535156-31.527343 26.503906-4.417969 0-8 3.582032-8 8 0 4.421875 3.582031 8 8 8zm0 0"/><path d="m128.011719 112.003906v80c0 4.421875 3.582031 8 8 8s8-3.578125 8-8v-80c0-4.417968-3.582031-8-8-8s-8 3.582032-8 8zm0 0"/><path d="m120.011719 112.003906c0-4.417968-3.582031-8-8-8s-8 3.582032-8 8v16c0 4.421875 3.582031 8 8 8s8-3.578125 8-8zm0 0"/><path d="m88.011719 168.003906c-4.417969 0-8 3.582032-8 8v16c0 4.421875 3.582031 8 8 8s8-3.578125 8-8v-16c0-4.417968-3.582031-8-8-8zm0 0"/><path d="m96.011719 112.003906c0-4.417968-3.582031-8-8-8s-8 3.582032-8 8v40c0 4.421875 3.582031 8 8 8s8-3.578125 8-8zm0 0"/><path d="m112.011719 144.003906c-4.417969 0-8 3.582032-8 8v40c0 4.421875 3.582031 8 8 8s8-3.578125 8-8v-40c0-4.417968-3.582031-8-8-8zm0 0"/><path d="m160.011719 168.003906c-4.417969 0-8 3.582032-8 8v16c0 4.421875 3.582031 8 8 8s8-3.578125 8-8v-16c0-4.417968-3.582031-8-8-8zm0 0"/><path d="m192.011719 112.003906c0-4.417968-3.582031-8-8-8s-8 3.582032-8 8v16c0 4.421875 3.582031 8 8 8s8-3.578125 8-8zm0 0"/><path d="m184.011719 144.003906c-4.417969 0-8 3.582032-8 8v40c0 4.421875 3.582031 8 8 8s8-3.578125 8-8v-40c0-4.417968-3.582031-8-8-8zm0 0"/><path d="m168.011719 112.003906c0-4.417968-3.582031-8-8-8s-8 3.582032-8 8v40c0 4.421875 3.582031 8 8 8s8-3.578125 8-8zm0 0"/><path d="m328.011719 424.003906h16c4.417969 0 8-3.578125 8-8 0-4.417968-3.582031-8-8-8h-16c-4.417969 0-8 3.582032-8 8 0 4.421875 3.582031 8 8 8zm0 0"/></svg>