<?xml version="1.0" encoding="iso-8859-1"?>
<!-- Generator: Adobe Illustrator 19.0.0, SVG Export Plug-In . SVG Version: 6.00 Build 0)  -->
<svg version="1.1" id="Capa_1" xmlns="http://www.w3.org/2000/svg" xmlns:xlink="http://www.w3.org/1999/xlink" x="0px" y="0px"
	 viewBox="0 0 480 480" style="enable-background:new 0 0 480 480;" xml:space="preserve">
<g>
	<g>
		<path d="M472,440H357.768l-10.72-32.152C385.559,406.216,415.953,374.545,416,336v-40h8c13.224,0.025,23.964-10.675,23.989-23.899
			c0.019-10.174-6.393-19.249-15.989-22.629V224c0-4.418-3.582-8-8-8h-24V32c0-4.418-3.582-8-8-8H280c-4.418,0-8,3.582-8,8v40.64
			c-27.527,3.973-47.967,27.547-48,55.36v16c0,4.418,3.582,8,8,8h96c4.418,0,8-3.582,8-8v-16c-0.033-27.813-20.473-51.387-48-55.36
			V40h96v176h-24c-4.418,0-8,3.582-8,8v24H56c-13.255,0-24,10.745-24,24s10.745,24,24,24h8v40
			c0.047,38.545,30.441,70.216,68.952,71.848L122.232,440H8c-4.418,0-8,3.582-8,8s3.582,8,8,8h464c4.418,0,8-3.582,8-8
			S476.418,440,472,440z M320,128v8h-80v-8c0-22.091,17.909-40,40-40C302.091,88,320,105.909,320,128z M400,232h16v16h-16V232z
			 M368,232h16v16h-16V232z M56,280c-4.418,0-8-3.582-8-8s3.582-8,8-8h368c4.418,0,8,3.582,8,8s-3.582,8-8,8H56z M154.232,440
			h-15.136l10.672-32h15.136L154.232,440z M171.104,440l10.664-32h116.464l10.664,32H171.104z M325.768,440l-10.672-32h15.136
			l10.672,32H325.768z M136,392c-30.913-0.035-55.965-25.087-56-56v-40h320v40c-0.035,30.913-25.087,55.965-56,56H136z"/>
	</g>
</g>
<g>
	<g>
		<path d="M120,312h-16c-4.418,0-8,3.582-8,8s3.582,8,8,8h16c4.418,0,8-3.582,8-8S124.418,312,120,312z"/>
	</g>
</g>
<g>
	<g>
		<path d="M200,312h-48c-4.418,0-8,3.582-8,8s3.582,8,8,8h48c4.418,0,8-3.582,8-8S204.418,312,200,312z"/>
	</g>
</g>
<g>
	<g>
		<path d="M232,168c-4.418,0-8,3.582-8,8v24c0,4.418,3.582,8,8,8s8-3.582,8-8v-24C240,171.582,236.418,168,232,168z"/>
	</g>
</g>
<g>
	<g>
		<path d="M264,192c-4.418,0-8,3.582-8,8v24c0,4.418,3.582,8,8,8s8-3.582,8-8v-24C272,195.582,268.418,192,264,192z"/>
	</g>
</g>
<g>
	<g>
		<path d="M296,168c-4.418,0-8,3.582-8,8v24c0,4.418,3.582,8,8,8s8-3.582,8-8v-24C304,171.582,300.418,168,296,168z"/>
	</g>
</g>
<g>
	<g>
		<path d="M328,192c-4.418,0-8,3.582-8,8v24c0,4.418,3.582,8,8,8s8-3.582,8-8v-24C336,195.582,332.418,192,328,192z"/>
	</g>
</g>
<g>
</g>
<g>
</g>
<g>
</g>
<g>
</g>
<g>
</g>
<g>
</g>
<g>
</g>
<g>
</g>
<g>
</g>
<g>
</g>
<g>
</g>
<g>
</g>
<g>
</g>
<g>
</g>
<g>
</g>
</svg>
