<svg version="1.1" id="Capa_1" xmlns="http://www.w3.org/2000/svg" xmlns:xlink="http://www.w3.org/1999/xlink" x="0px" y="0px"
	 viewBox="0 0 480 480" style="enable-background:new 0 0 480 480;" xml:space="preserve">
			<path d="M448,80v352c0,8.837-7.163,16-16,16H80c0,17.673,14.327,32,32,32h320c26.51,0,48-21.49,48-48V112
				C480,94.327,465.673,80,448,80z"/>
			<path d="M416,368V48c0-26.51-21.49-48-48-48H48C21.49,0,0,21.49,0,48v320c0,26.51,21.49,48,48,48h320
				C394.51,416,416,394.51,416,368z M292.734,196.547c-0.031,0.031-0.063,0.062-0.094,0.093L224,265.44l-68.64-68.64
				c-6.241-6.204-16.319-6.204-22.56,0L32,297.44V48c0-8.837,7.163-16,16-16h320c8.837,0,16,7.163,16,16v217.44l-68.64-68.64
				C309.182,190.482,299.052,190.369,292.734,196.547z"/>
			<path d="M224,80c-26.51,0-48,21.49-48,48s21.49,48,48,48c26.51,0,48-21.49,48-48S250.51,80,224,80z M224,144
				c-8.837,0-16-7.163-16-16s7.163-16,16-16s16,7.163,16,16S232.837,144,224,144z"/>
</svg>
