<?xml version="1.0" encoding="iso-8859-1"?>
<!-- Generator: Adobe Illustrator 19.0.0, SVG Export Plug-In . SVG Version: 6.00 Build 0)  -->
<svg version="1.1" id="Layer_1" xmlns="http://www.w3.org/2000/svg" xmlns:xlink="http://www.w3.org/1999/xlink" x="0px" y="0px"
	 viewBox="0 0 512 512" style="enable-background:new 0 0 512 512;" xml:space="preserve">
<g>
	<g>
		<path d="M496.224,258.624c-8.192-3.248-17.504,0.768-20.768,8.992L423.84,397.872c-3.696,9.392-16.48,17.664-27.328,17.664
			H119.296c-10.848,0-23.632-8.272-27.344-17.68l-51.616-130.64c-3.248-8.208-12.544-12.224-20.752-8.992
			c-8.208,3.248-12.24,12.544-8.992,20.752l51.6,130.608c8.528,21.632,33.072,37.952,57.104,37.952h277.216
			c24.032,0,48.576-16.32,57.104-37.92l51.6-130.224C508.464,271.184,504.448,261.888,496.224,258.624z"/>
	</g>
</g>
<g>
	<g>
		<path d="M124.08,417.952c-8.512-2.672-17.408,2.064-20.048,10.48l-9.776,31.184c-2.64,8.416,2.048,17.408,10.48,20.048
			c1.6,0.496,3.2,0.736,4.784,0.736c6.816,0,13.12-4.384,15.264-11.216L134.56,438C137.2,429.584,132.512,420.592,124.08,417.952z"
			/>
	</g>
</g>
<g>
	<g>
		<path d="M423.296,459.616l-9.776-31.184c-2.64-8.416-11.584-13.136-20.048-10.48c-8.432,2.64-13.12,11.632-10.48,20.048
			l9.776,31.184c2.144,6.848,8.448,11.216,15.264,11.216c1.584,0,3.184-0.24,4.784-0.736
			C421.248,477.024,425.936,468.032,423.296,459.616z"/>
	</g>
</g>
<g>
	<g>
		<path d="M159.984,85.28c-2.944-25.808-25.008-53.68-55.52-53.68C73.328,31.6,48,56.768,48,87.696v183.84c0,8.848,7.152,16,16,16
			s16-7.152,16-16V87.696C80,74.4,90.992,63.6,104.464,63.6c12.288,0,22.368,13.344,23.744,25.312
			c0.976,8.752,8.832,15.088,17.696,14.08C154.688,101.984,160.992,94.064,159.984,85.28z"/>
	</g>
</g>
<g>
	<g>
		<path d="M496,255.536H16c-8.848,0-16,7.168-16,16c0,8.848,7.152,16,16,16h480c8.848,0,16-7.152,16-16
			C512,262.704,504.848,255.536,496,255.536z"/>
	</g>
</g>
<g>
	<g>
		<path d="M160,111.536h-32c-8.848,0-16,7.168-16,16c0,8.832,7.152,16,16,16h32c8.848,0,16-7.168,16-16
			C176,118.704,168.848,111.536,160,111.536z"/>
	</g>
</g>
<g>
</g>
<g>
</g>
<g>
</g>
<g>
</g>
<g>
</g>
<g>
</g>
<g>
</g>
<g>
</g>
<g>
</g>
<g>
</g>
<g>
</g>
<g>
</g>
<g>
</g>
<g>
</g>
<g>
</g>
</svg>
