<?xml version="1.0" encoding="iso-8859-1"?>
<!-- Generator: Adobe Illustrator 19.0.0, SVG Export Plug-In . SVG Version: 6.00 Build 0)  -->
<svg version="1.1" id="Capa_1" xmlns="http://www.w3.org/2000/svg" xmlns:xlink="http://www.w3.org/1999/xlink" x="0px" y="0px"
	 viewBox="0 0 512 512" style="enable-background:new 0 0 512 512;" xml:space="preserve">
<g>
	<g>
		<path d="M472,210V83c0-45.767-37.233-83-83-83c-45.767,0-83,37.233-83,83h40c0-23.71,19.29-43,43-43c23.71,0,43,19.29,43,43v127
			h-87.675c1.072-2.451,1.675-5.154,1.675-8c0-11.046-8.954-20-20-20c-11.046,0-20,8.954-20,20c0,2.846,0.604,5.549,1.675,8H0v46
			c0,112.259,69.51,175.687,128.243,201.781C115.068,472.047,107,491.096,107,512h40c0-22.056,17.944-40,40-40h138
			c22.056,0,40,17.944,40,40h40c0-20.904-8.068-39.953-21.243-54.219C442.49,431.687,512,368.259,512,256v-46H472z M472,256
			c0,70.098-32.35,112.897-59.486,136.458C379.333,421.265,342.453,432,327,432H185c-15.453,0-52.333-10.735-85.514-39.542
			C72.35,368.897,40,326.098,40,256v-6h432V256z"/>
	</g>
</g>
<g>
	<g>
		<circle cx="326" cy="132" r="20"/>
	</g>
</g>
<g>
</g>
<g>
</g>
<g>
</g>
<g>
</g>
<g>
</g>
<g>
</g>
<g>
</g>
<g>
</g>
<g>
</g>
<g>
</g>
<g>
</g>
<g>
</g>
<g>
</g>
<g>
</g>
<g>
</g>
</svg>
