<?xml version="1.0" encoding="iso-8859-1"?>
<!-- Generator: Adobe Illustrator 19.0.0, SVG Export Plug-In . SVG Version: 6.00 Build 0)  -->
<svg version="1.1" id="Capa_1" xmlns="http://www.w3.org/2000/svg" xmlns:xlink="http://www.w3.org/1999/xlink" x="0px" y="0px"
	 viewBox="0 0 512 512" style="enable-background:new 0 0 512 512;" xml:space="preserve">
<g>
	<g>
		<path d="M480,170.667h-10.667v-64c0-23.531-19.135-42.667-42.667-42.667S384,83.135,384,106.646l-0.021,10.688
			c-0.01,5.896,4.75,10.677,10.646,10.688c0.01,0,0.01,0,0.01,0c5.896,0,10.667-4.76,10.677-10.646l0.021-10.708
			c0-11.76,9.573-21.333,21.333-21.333S448,94.906,448,106.667v64H32c-17.646,0-32,14.354-32,32
			c0,13.888,8.944,25.617,21.333,30.035v33.965c0,48.961,25.574,91.979,64,116.66v54.007C85.333,443.229,90.104,448,96,448h21.333
			c4.042,0,7.729-2.281,9.542-5.896l18.764-37.52c4.723,0.488,9.512,0.749,14.361,0.749h192c4.849,0,9.638-0.26,14.361-0.749
			l18.764,37.52c1.813,3.615,5.5,5.896,9.542,5.896H416c5.896,0,10.667-4.771,10.667-10.667v-54.007
			c38.426-24.681,64-67.699,64-116.66v-33.965C503.056,228.284,512,216.555,512,202.667C512,185.021,497.646,170.667,480,170.667z
			 M128,192h106.667v104.74L128,278.969V192z M21.333,202.667C21.333,196.781,26.115,192,32,192h74.667v21.333H32
			C26.115,213.333,21.333,208.552,21.333,202.667z M110.74,426.667h-4.073v-32.033c5.549,2.322,11.327,4.168,17.212,5.76
			L110.74,426.667z M405.333,426.667h-4.073l-13.139-26.272c5.884-1.592,11.663-3.439,17.212-5.76V426.667z M469.333,266.667
			C469.333,331.365,416.698,384,352,384H160c-64.698,0-117.333-52.635-117.333-117.333v-32h64V288c0,5.219,3.771,9.667,8.917,10.521
			l128,21.333c0.583,0.094,1.167,0.146,1.75,0.146c2.51,0,4.958-0.885,6.896-2.531c2.396-2.021,3.771-5,3.771-8.135v-74.667h213.333
			V266.667z M480,213.333H256V192h224c5.885,0,10.667,4.781,10.667,10.667C490.667,208.552,485.885,213.333,480,213.333z"/>
	</g>
</g>
<g>
</g>
<g>
</g>
<g>
</g>
<g>
</g>
<g>
</g>
<g>
</g>
<g>
</g>
<g>
</g>
<g>
</g>
<g>
</g>
<g>
</g>
<g>
</g>
<g>
</g>
<g>
</g>
<g>
</g>
</svg>
